<svg xmlns="http://www.w3.org/2000/svg" viewBox="0 0 24 24" width="240" height="240">
  <defs>
    <mask id="cutout-mask">
      <!-- White background means visible in the mask -->
      <rect width="100%" height="100%" fill="white"/>
      <!-- Your TryHackMe icon becomes a transparent cutout -->
      <path d="M10.705 0C7.54 0 4.902 2.285 4.349 5.291a4.525 4.525 0 0 0 -4.107 4.5 4.525 4.525 0 0 0 4.52 4.52h6.761a0.625 0.625 0 1 0 0 -1.25H4.761a3.273 3.273 0 0 1 -3.27 -3.27A3.273 3.273 0 0 1 6.59 7.08a0.625 0.625 0 0 0 0.7 -1.035 4.488 4.488 0 0 0 -1.68 -0.69 5.223 5.223 0 0 1 5.096 -4.104 5.221 5.221 0 0 1 5.174 4.57 4.489 4.489 0 0 0 -0.488 0.305 0.625 0.625 0 1 0 0.731 1.013 3.245 3.245 0 0 1 1.912 -0.616 3.278 3.278 0 0 1 3.203 2.61 0.625 0.625 0 0 0 1.225 -0.251 4.533 4.533 0 0 0 -4.428 -3.61 4.54 4.54 0 0 0 -0.958 0.105C16.556 2.328 13.9 0 10.705 0zm5.192 10.64a0.925 0.925 0 0 0 -0.462 0.108 0.913 0.913 0 0 0 -0.313 0.29 1.27 1.27 0 0 0 -0.175 0.427 2.39 2.39 0 0 0 -0.054 0.514c0 0.181 0.018 0.353 0.054 0.517 0.036 0.164 0.095 0.307 0.175 0.43a0.899 0.899 0 0 0 0.313 0.297c0.127 0.073 0.281 0.11 0.462 0.11 0.18 0 0.334 -0.037 0.46 -0.11a0.897 0.897 0 0 0 0.309 -0.296c0.08 -0.124 0.137 -0.267 0.173 -0.431 0.036 -0.164 0.054 -0.336 0.054 -0.517 0 -0.18 -0.018 -0.352 -0.054 -0.514a1.271 1.271 0 0 0 -0.173 -0.426 0.901 0.901 0 0 0 -0.309 -0.291 0.917 0.917 0 0 0 -0.46 -0.108zm6.486 0a0.925 0.925 0 0 0 -0.462 0.108 0.913 0.913 0 0 0 -0.313 0.29 1.27 1.27 0 0 0 -0.175 0.427 2.39 2.39 0 0 0 -0.053 0.514c0 0.181 0.017 0.353 0.053 0.517 0.036 0.164 0.095 0.307 0.175 0.43a0.899 0.899 0 0 0 0.313 0.297c0.127 0.073 0.281 0.11 0.462 0.11 0.18 0 0.334 -0.037 0.46 -0.11a0.897 0.897 0 0 0 0.31 -0.296c0.078 -0.124 0.136 -0.267 0.172 -0.431 0.036 -0.164 0.054 -0.336 0.054 -0.517 0 -0.18 -0.018 -0.352 -0.054 -0.514a1.271 1.271 0 0 0 -0.173 -0.426 0.901 0.901 0 0 0 -0.308 -0.291 0.916 0.916 0 0 0 -0.461 -0.108z" fill="black"/>
    </mask>
  </defs>

  <!-- Rounded square with the cutout mask applied -->
  <rect width="24" height="24" rx="3" ry="3" fill="black" mask="url(#cutout-mask)"/>
</svg>